<?xml version="1.0" standalone="no"?>
<!DOCTYPE svg PUBLIC "-//W3C//DTD SVG 20010904//EN"
 "http://www.w3.org/TR/2001/REC-SVG-20010904/DTD/svg10.dtd">
<svg version="1.0" xmlns="http://www.w3.org/2000/svg"
 width="624.000000pt" height="624.000000pt" viewBox="0 0 624.000000 624.000000"
 preserveAspectRatio="xMidYMid meet">
<metadata>
Created by potrace 1.14, written by Peter Selinger 2001-2017
</metadata>
<g transform="translate(0.000000,624.000000) scale(0.100000,-0.100000)"
fill="#000000" stroke="none">
<path d="M2871 6227 c-12 -6 -279 -287 -592 -624 -313 -337 -583 -620 -599
-628 -37 -19 -93 -19 -130 0 -16 8 -76 72 -133 142 -137 168 -145 175 -207
181 -60 5 -101 -10 -135 -50 -39 -46 -46 -90 -29 -167 104 -449 426 -1816 430
-1820 6 -6 -73 -139 814 1389 625 1078 804 1394 808 1427 5 50 -24 108 -72
141 -36 24 -113 29 -155 9z"/>
<path d="M3836 5925 c-22 -8 -68 -42 -105 -78 -36 -35 -307 -291 -601 -567
-294 -277 -579 -545 -633 -596 -53 -51 -94 -95 -90 -97 5 -2 731 -6 1615 -8
l1606 -4 28 21 c53 39 69 71 69 134 0 65 -20 102 -71 132 -16 9 -393 100 -839
203 -555 128 -819 193 -838 207 -35 25 -57 68 -57 112 0 19 27 108 60 196 67
181 74 227 37 281 -22 33 -96 79 -127 79 -8 -1 -33 -7 -54 -15z"/>
<path d="M407 4626 c-105 -38 -129 -115 -83 -263 14 -43 122 -397 241 -788
239 -783 237 -775 180 -835 -37 -39 -56 -45 -237 -74 -187 -31 -195 -34 -236
-80 -28 -32 -32 -44 -32 -92 0 -63 18 -104 57 -132 16 -11 262 -90 548 -177
286 -86 697 -211 914 -277 216 -65 395 -117 398 -114 3 2 -118 220 -268 483
-150 263 -499 876 -777 1363 -277 487 -515 902 -529 923 -14 23 -41 46 -66 58
-50 22 -60 22 -110 5z"/>
<path d="M4010 4446 c0 -8 1538 -2709 1577 -2769 32 -51 98 -81 155 -72 78 14
147 105 132 174 -6 26 -102 341 -349 1150 -74 244 -135 460 -135 480 0 42 28
93 64 116 15 10 101 29 203 46 113 19 188 37 207 49 90 55 95 197 10 257 -16
11 -434 143 -929 293 -1038 315 -935 284 -935 276z"/>
<path d="M4677 2958 c-61 -95 -1575 -2713 -1590 -2749 -27 -62 -17 -109 32
-162 35 -37 43 -41 100 -45 46 -3 67 0 86 12 14 9 281 292 594 629 313 337
580 618 595 625 15 7 40 12 57 12 62 0 93 -25 201 -156 58 -71 117 -140 131
-153 27 -25 96 -38 141 -27 41 10 95 64 106 107 12 43 14 29 -170 814 -54 231
-135 575 -180 764 -44 190 -82 346 -84 349 -3 2 -11 -7 -19 -20z"/>
<path d="M535 1657 c-66 -30 -105 -108 -91 -178 8 -40 41 -86 74 -103 15 -7
392 -98 837 -201 555 -128 819 -193 838 -207 36 -26 57 -68 57 -115 0 -22 -25
-105 -60 -197 -38 -101 -60 -173 -60 -200 0 -105 114 -182 209 -139 26 11 176
146 417 373 207 195 519 489 693 653 174 163 318 302 319 307 3 7 -344 10
-1016 10 -560 0 -1282 2 -1603 5 -491 5 -589 4 -614 -8z"/>
</g>
</svg>
