<svg width="34" height="34" viewBox="0 0 34 34" fill="none" xmlns="http://www.w3.org/2000/svg">
<g clip-path="url(#clip0_7_1302)">
<path d="M16.6136 0C7.45484 0 0 7.62937 0 16.9974C0 26.3654 7.45484 34 16.6136 34C25.7724 34 33.2273 26.3706 33.2273 16.9974C33.2273 7.62418 25.7724 0 16.6136 0ZM16.6136 31.8202C8.61617 31.8202 2.12995 25.1821 2.12995 16.9974C2.12995 8.8127 8.61617 2.17463 16.6136 2.17463C24.6111 2.17463 31.0973 8.8127 31.0973 16.9974C31.0973 25.1821 24.6111 31.8202 16.6136 31.8202Z" fill="white"/>
<path d="M19.1392 19.2396C18.7182 19.5925 18.272 20.2464 17.704 20.3398C17.1411 20.4333 16.6035 20.0181 16.1927 19.6859C15.285 18.9282 14.4025 17.9005 13.865 16.8262C13.6418 16.3487 13.439 15.7311 13.7686 15.2588C14.1084 14.7917 14.6713 14.5685 15.0314 14.1274C15.787 13.2243 14.9655 12.0462 14.4583 11.2365C14.1743 10.7694 13.7534 10.1051 13.1601 10.022C12.5972 9.95975 12.0849 10.6033 11.7147 10.9511C10.8171 11.7815 10.3201 12.8662 10.2643 14.1014C10.2694 14.2467 10.2694 14.4751 10.2542 14.2623C10.3455 15.0045 10.4266 15.7103 10.6802 16.411C10.9135 17.0753 11.238 17.6877 11.6133 18.2742C12.4146 19.5146 13.3376 20.7083 14.438 21.6996C15.5081 22.6754 16.7151 23.5473 18.1452 23.8639C19.4891 24.1442 20.7924 23.8535 21.8523 22.966C22.2327 22.6442 22.9376 22.1823 22.968 21.627C22.9984 21.0665 22.5623 20.6201 22.1921 20.2879C21.3959 19.5562 20.2244 18.3469 19.1392 19.2292" fill="white"/>
</g>
<defs>
<clipPath id="clip0_7_1302">
<rect width="33.2273" height="34" fill="white"/>
</clipPath>
</defs>
</svg>
