<svg width="34" height="34" viewBox="0 0 34 34" fill="none" xmlns="http://www.w3.org/2000/svg">
<g clip-path="url(#clip0_7_1305)">
<path d="M16.6136 0C7.45484 0 0 7.62418 0 16.9974C0 26.3706 7.45484 34 16.6136 34C25.7724 34 33.2273 26.3706 33.2273 16.9974C33.2273 7.62418 25.7724 0 16.6136 0ZM16.6136 31.8202C8.61617 31.8202 2.12995 25.1821 2.12995 16.9974C2.12995 8.8127 8.61617 2.17982 16.6136 2.17982C24.6111 2.17982 31.0973 8.81789 31.0973 17.0026C31.0973 25.1873 24.6111 31.8254 16.6136 31.8254" fill="white"/>
<path d="M23.1404 12.1447H10.0818L16.6035 17.2776L23.1404 12.1447Z" fill="white"/>
<path d="M9.0726 12.7001V21.2481L14.3468 16.8417L9.0726 12.7001Z" fill="white"/>
<path d="M16.6035 18.6375L15.1987 17.5112L10.026 21.8501H23.2266L18.0843 17.4697L16.6035 18.6375Z" fill="white"/>
<path d="M24.1547 21.2377V12.7001L18.9312 16.795L24.1547 21.2377Z" fill="white"/>
</g>
<defs>
<clipPath id="clip0_7_1305">
<rect width="33.2273" height="34" fill="white"/>
</clipPath>
</defs>
</svg>
