<svg width="32" height="31" viewBox="0 0 32 31" fill="none" xmlns="http://www.w3.org/2000/svg">
<g clip-path="url(#clip0_7_1030)">
<path d="M32 15.5805C31.9723 23.8002 25.226 30.9865 16.0347 31C6.7602 31.0134 -0.117725 23.78 2.43436e-05 15.2919C0.117773 6.91792 6.98184 -0.0268844 16.0416 -4.45337e-05C25.3091 0.0267953 32.0485 7.29368 32 15.5805ZM17.323 22.2367C17.323 20.7941 17.3299 19.3515 17.323 17.9088C17.323 17.5129 17.4684 17.3586 17.8771 17.3653C18.5974 17.3787 19.3108 17.3586 20.0312 17.3653C20.3844 17.372 20.5645 17.2714 20.6199 16.8956C20.7446 15.9697 20.8901 15.0437 21.0702 14.1311C21.1533 13.695 20.987 13.5876 20.5853 13.5943C19.671 13.6077 18.7637 13.5943 17.8494 13.5943C17.4753 13.5943 17.316 13.4534 17.323 13.0777C17.3437 12.3127 17.323 11.5478 17.323 10.7829C17.323 9.60861 18.0641 8.85039 19.2901 8.79C19.7957 8.76316 20.3082 8.76987 20.8139 8.77658C21.1671 8.78329 21.3264 8.66922 21.3195 8.30688C21.3057 7.56208 21.3057 6.81056 21.3195 6.06576C21.3264 5.71684 21.1879 5.58264 20.8277 5.56922C20.0243 5.54909 19.2139 5.52896 18.4104 5.46857C15.0857 5.20017 13.3818 7.19303 13.0979 9.91727C12.994 10.9238 13.0424 11.9504 13.0702 12.9703C13.0771 13.4467 12.8901 13.601 12.426 13.5943C11.5879 13.5742 10.7429 13.601 9.90479 13.5876C9.52383 13.5876 9.37838 13.7218 9.38531 14.0976C9.40608 15.0168 9.40608 15.9294 9.38531 16.8487C9.37145 17.2647 9.55154 17.372 9.94634 17.3653C10.736 17.3452 11.5256 17.3586 12.3152 17.3653C13.0632 17.3653 13.0702 17.3653 13.0702 18.1101C13.0702 20.8813 13.084 23.6458 13.0632 26.4103C13.0632 26.9337 13.2364 27.088 13.7559 27.0746C14.7533 27.0411 15.7507 27.0478 16.755 27.0746C17.1844 27.0813 17.3437 26.9471 17.3368 26.5177C17.316 25.0885 17.3299 23.666 17.3368 22.2367" fill="#231F20"/>
</g>
<defs>
<clipPath id="clip0_7_1030">
<rect width="32" height="31" fill="white"/>
</clipPath>
</defs>
</svg>
