<svg width="31" height="31" viewBox="0 0 31 31" fill="none" xmlns="http://www.w3.org/2000/svg">
<g clip-path="url(#clip0_7_1031)">
<path d="M0 15.4933C0.0402423 7.09913 6.6601 0 15.5 0C24.3399 0 30.9933 6.94481 31 15.4866C31 24.0351 24.2661 31.0134 15.4866 31C6.70035 30.9933 0.0402423 23.9478 0 15.4933ZM15.5268 5.75714C14.1183 5.75714 12.7099 5.75714 11.3014 5.75714C10.8118 5.75714 10.3154 5.74372 9.83254 5.85108C7.39788 6.40801 5.71441 8.50822 5.701 11.0513C5.68758 13.9701 5.69429 16.889 5.701 19.8078C5.701 22.9548 7.96127 25.263 11.1069 25.2898C14.0446 25.3167 16.9756 25.31 19.9132 25.2898C23.0253 25.2697 25.299 22.9615 25.3057 19.8481C25.3057 16.9091 25.3124 13.9768 25.3057 11.0379C25.299 8.03182 23.0186 5.76385 20.0138 5.75043C18.5182 5.74372 17.0292 5.75043 15.5335 5.75043" fill="#231F20"/>
<path d="M22.69 15.4866C22.69 16.7816 22.69 18.0766 22.69 19.365C22.6833 21.2102 21.2614 22.6663 19.4169 22.6797C16.8146 22.6998 14.2123 22.6998 11.6166 22.6797C9.73865 22.6663 8.31676 21.2236 8.31005 19.3515C8.29663 16.795 8.29663 14.2385 8.31005 11.6753C8.32346 9.75629 9.75877 8.32036 11.6837 8.31365C14.2257 8.30023 16.7676 8.30023 19.3096 8.31365C21.2882 8.32036 22.69 9.75629 22.6967 11.7424C22.6967 12.9905 22.6967 14.2385 22.6967 15.4933M10.899 15.4866C10.8923 18.0632 12.9312 20.1567 15.4665 20.1634C18.0554 20.1634 20.1547 18.1169 20.1748 15.5604C20.1949 13.0173 18.0889 10.8701 15.5604 10.8433C13.005 10.8232 10.9124 12.9033 10.899 15.4866ZM20.1413 11.8028C20.698 11.8028 21.0669 11.4338 21.0669 10.8903C21.0669 10.3736 20.6443 9.95759 20.1346 9.95759C19.6181 9.95759 19.209 10.3803 19.2157 10.897C19.2157 11.4539 19.5846 11.8095 20.1413 11.8028Z" fill="#231F20"/>
<path d="M15.5134 13.1515C16.8079 13.1515 17.8877 14.2251 17.8944 15.5067C17.8944 16.8151 16.7878 17.9223 15.4866 17.9156C14.2055 17.9156 13.0989 16.795 13.1056 15.5067C13.1056 14.2117 14.1921 13.1448 15.5201 13.1448" fill="#231F20"/>
</g>
<defs>
<clipPath id="clip0_7_1031">
<rect width="31" height="31" fill="white"/>
</clipPath>
</defs>
</svg>
