<svg width="32" height="31" viewBox="0 0 32 31" fill="none" xmlns="http://www.w3.org/2000/svg">
<g clip-path="url(#clip0_7_1033)">
<path d="M-8.52509e-05 15.4261C0.0345468 7.14603 6.8432 -0.0403355 16.0623 -7.57917e-05C25.2952 0.0401839 32.1384 7.26681 31.9999 15.7482C31.8614 24.082 25.0527 30.9865 16.0207 30.9999C6.76009 31.0133 -0.0416437 23.7666 -8.52509e-05 15.4261ZM12.89 18.2309C12.89 19.962 12.9038 21.6932 12.883 23.4244C12.883 23.874 13.0285 24.0283 13.4926 24.0081C14.1713 23.9813 14.8571 24.0082 15.5428 24.0014C16.0646 24.0014 16.3278 23.7487 16.3324 23.2432C16.3324 21.4785 16.3185 19.7138 16.3393 17.9491C16.3601 16.4662 17.4822 15.3657 18.9436 15.3456C20.3151 15.3255 21.3194 16.3722 21.3887 17.8887C21.3956 18.0564 21.3887 18.2309 21.3887 18.3986C21.3887 20.0828 21.3956 21.7603 21.3887 23.4445C21.3887 23.8538 21.5133 24.035 21.9566 24.0149C22.7462 23.988 23.5358 23.9947 24.3255 24.0149C24.7203 24.0216 24.838 23.8672 24.838 23.4982C24.8242 21.0558 24.8449 18.6066 24.8242 16.1642C24.8172 15.2986 24.4848 14.527 23.9514 13.809C22.4761 11.8162 18.5211 11.9504 17.1428 13.2923C16.935 13.4936 16.748 13.9298 16.4571 13.809C16.1869 13.6949 16.3393 13.2521 16.3462 12.9569C16.3532 12.5543 16.1939 12.4201 15.7852 12.4335C15.0302 12.4536 14.2752 12.4603 13.5272 12.4335C13.0423 12.4133 12.89 12.5811 12.8969 13.0508C12.9177 14.782 12.9038 16.5131 12.9038 18.2443M10.6666 18.204C10.6666 16.4729 10.6597 14.7417 10.6735 13.0105C10.6735 12.6079 10.5627 12.4201 10.1125 12.4335C9.30901 12.4603 8.49862 12.4469 7.69515 12.4335C7.36961 12.4335 7.21723 12.5274 7.21723 12.8696C7.22416 16.4326 7.21723 19.9956 7.21723 23.5586C7.21723 23.8874 7.35576 24.0149 7.68823 24.0081C8.47784 24.0014 9.26745 23.9813 10.0501 24.0081C10.5488 24.0283 10.6804 23.8337 10.6735 23.3841C10.6527 21.653 10.6666 19.9218 10.6666 18.1906M6.87784 8.55512C6.87091 9.72936 7.75056 10.6285 8.9142 10.6285C10.064 10.6285 11.0198 9.71594 11.0406 8.59538C11.0614 7.49495 10.1055 6.54213 8.95576 6.51529C7.79212 6.48845 6.87784 7.38088 6.87091 8.55512" fill="#231F20"/>
</g>
<defs>
<clipPath id="clip0_7_1033">
<rect width="32" height="31" fill="white"/>
</clipPath>
</defs>
</svg>
