<svg width="34" height="34" viewBox="0 0 34 34" fill="none" xmlns="http://www.w3.org/2000/svg">
<g clip-path="url(#clip0_7_1299)">
<path d="M17 34C26.3718 34 34 26.3758 34 17.0026C34 7.62937 26.3718 0 17 0C7.6282 0 0 7.62937 0 17.0026C0 26.3758 7.6282 34 17 34ZM17 2.17463C25.1835 2.17463 31.8205 8.8127 31.8205 16.9974C31.8205 25.1821 25.1835 31.8202 17 31.8202C8.81654 31.8202 2.17949 25.1873 2.17949 17.0026C2.17949 8.81789 8.81654 2.17982 17 2.17982" fill="white"/>
<path d="M12.3089 17.9005L16.9948 24.9434L21.7067 17.8849H21.7015C22.3086 16.9922 22.6615 15.9023 22.6615 14.7345C22.6615 11.6101 20.1239 9.06702 16.9948 9.06702C13.8657 9.06702 11.3385 11.6101 11.3385 14.7345C11.3385 15.9023 11.6914 16.9922 12.3089 17.8849V17.9057V17.9005ZM16.9948 11.579C18.7488 11.579 20.1395 12.9959 20.1395 14.7294C20.1395 16.4628 18.7436 17.8797 16.9948 17.8797C15.246 17.8797 13.8397 16.468 13.8397 14.7294C13.8397 12.9907 15.2512 11.579 16.9948 11.579Z" fill="white"/>
</g>
<defs>
<clipPath id="clip0_7_1299">
<rect width="34" height="34" fill="white"/>
</clipPath>
</defs>
</svg>
