<svg width="72" height="78" viewBox="0 0 72 78" fill="none" xmlns="http://www.w3.org/2000/svg">
<path d="M66.6618 20.7929L27.0507 20.6398L33.8017 14.2835L38.5964 9.75751L44.2931 4.39289C45.752 3.01512 48.0599 4.56594 47.3569 6.44289L46.0306 9.97049C45.626 11.0487 46.2627 12.2335 47.3768 12.4931L67.0928 17.0523C69.2879 17.5582 68.9166 20.8062 66.6618 20.7996" fill="#F7941E"/>
<path d="M66.8276 56.9208L47.1514 22.4169L56.0113 25.1125L62.3181 27.0161L69.7986 29.2857C71.7152 29.8648 71.5361 32.6469 69.5599 32.9731L65.8528 33.5854C64.7254 33.7718 64.0158 34.9166 64.354 36.0148L70.2827 55.4299C70.9459 57.5931 67.955 58.891 66.8342 56.9275" fill="#F7941E"/>
<path d="M35.7382 75.1313L55.6731 40.7804L57.782 49.8257L59.294 56.2553L61.078 63.8895C61.5355 65.8464 59.042 67.0777 57.7754 65.5269L55.3946 62.6116C54.6717 61.7264 53.3255 61.6798 52.5496 62.5184L38.7557 77.381C37.2171 79.0383 34.6042 77.0881 35.7382 75.1313Z" fill="#F7941E"/>
<path d="M4.483 57.2137L44.0941 57.3668L37.3431 63.7231L32.5483 68.2491L26.8517 73.6137C25.3927 74.9848 23.0849 73.4407 23.7879 71.5571L25.1142 68.0295C25.5187 66.9512 24.8821 65.7665 23.768 65.5136L4.05194 60.9543C1.85685 60.4484 2.22822 57.2004 4.483 57.207" fill="#F7941E"/>
<path d="M4.31062 21.0858L23.9869 55.5898L15.1269 52.9008L8.82018 50.9972L1.33962 48.7276C-0.576936 48.1485 -0.39788 45.3664 1.57837 45.0402L5.28548 44.4279C6.41287 44.2415 7.12246 43.0967 6.78425 41.9985L0.862143 22.5834C0.198973 20.4202 3.18987 19.1223 4.31062 21.0858Z" fill="#F7941E"/>
<path d="M35.4 2.87534L15.4651 37.2262L13.3562 28.1809L11.8442 21.7514L10.0603 14.1171C9.6027 12.1603 12.0962 10.9289 13.3629 12.4797L15.7436 15.395C16.4665 16.2802 17.8127 16.3268 18.5886 15.4882L32.3892 0.625665C33.9278 -1.03164 36.5406 0.918523 35.4066 2.87534" fill="#F7941E"/>
</svg>
