<svg width="293" height="126" viewBox="0 0 293 126" fill="none" xmlns="http://www.w3.org/2000/svg">
<g clip-path="url(#clip0_7_1264)">
<path d="M107.22 33.32L43.5 33.08L54.36 22.9L62.07 15.64L71.24 7.04C73.59 4.84 77.3 7.32 76.17 10.33L74.04 15.98C73.39 17.7 74.41 19.6 76.2 20.02L107.92 27.32C111.46 28.13 110.85 33.34 107.23 33.32" fill="white"/>
<path d="M107.49 91.22L75.84 35.92L90.09 40.23L100.23 43.28L112.26 46.92C115.34 47.85 115.05 52.31 111.87 52.83L105.91 53.81C104.09 54.11 102.96 55.94 103.49 57.7L113.02 88.82C114.08 92.29 109.27 94.37 107.47 91.22" fill="white"/>
<path d="M57.48 120.4L89.55 65.34L92.94 79.84L95.37 90.14L98.23 102.38C98.96 105.52 94.96 107.49 92.92 105L89.09 100.33C87.92 98.91 85.77 98.84 84.51 100.19L62.33 124.01C59.86 126.66 55.65 123.54 57.48 120.41" fill="white"/>
<path d="M7.20997 91.6899L70.93 91.9399L60.07 102.12L52.36 109.38L43.19 117.98C40.84 120.18 37.13 117.7 38.26 114.69L40.39 109.04C41.04 107.32 40.02 105.42 38.23 105L6.50997 97.6999C2.96997 96.8899 3.57997 91.6799 7.19997 91.6999" fill="white"/>
<path d="M6.93997 33.7901L38.59 89.0901L24.34 84.7701L14.2 81.7201L2.16997 78.0801C-0.910025 77.1501 -0.620026 72.6901 2.55997 72.1701L8.51997 71.1901C10.34 70.8901 11.47 69.0601 10.94 67.3001L1.38997 36.1901C0.329974 32.7201 5.13997 30.6401 6.93997 33.7901Z" fill="white"/>
<path d="M56.94 4.60006L24.87 59.6601L21.48 45.1601L19.05 34.8601L16.19 22.6201C15.46 19.4801 19.46 17.5101 21.5 20.0001L25.33 24.6701C26.5 26.0901 28.65 26.1601 29.91 24.8201L52.09 1.00006C54.56 -1.64994 58.77 1.47006 56.94 4.60006Z" fill="white"/>
<path d="M150.94 22.71C160.74 22.71 164.5 26.67 164.5 35.23C164.5 37 163.98 40.45 161.84 42.79C163.98 43.78 165.54 46.39 165.54 49.62C165.54 56.09 162.67 59.22 152.87 59.22H139.99C139 59.22 138.42 58.65 138.42 57.66V24.33C138.42 23.29 138.94 22.76 139.99 22.71H150.94ZM152.19 51.81C154.69 51.81 155.94 51.55 155.94 49.1C155.94 46.65 154.79 46.28 152.29 46.28H148.9C147.91 46.28 147.33 46.8 147.33 47.85V50.25C147.33 51.29 147.9 51.82 148.9 51.82H152.19V51.81ZM151.77 38.77C154.27 38.77 155.53 38.46 155.53 35.22C155.53 31.98 154.28 31.67 151.77 31.67H148.95C147.96 31.67 147.38 32.19 147.38 33.24V37.2C147.38 38.24 147.95 38.76 148.95 38.76H151.77V38.77Z" fill="white"/>
<path d="M175.04 22.71C176.08 22.71 176.6 23.23 176.6 24.27V44.71C176.6 48.72 176.86 51.18 180.72 51.18C184.58 51.18 184.84 48.73 184.84 44.71V24.28C184.84 23.24 185.41 22.72 186.41 22.72H192.25C193.29 22.72 193.81 23.24 193.81 24.28V47.49C193.81 50.93 193.08 60.16 180.72 60.16C168.36 60.16 167.63 50.93 167.63 47.49V24.28C167.63 23.24 168.2 22.72 169.2 22.72H175.04V22.71Z" fill="white"/>
<path d="M210.03 22.71C210.97 22.71 211.49 23.23 211.7 24.12L215.4 39.29C215.5 39.81 215.92 39.81 216.03 39.29L219.73 24.12C219.94 23.23 220.46 22.71 221.4 22.71H232.19C233.23 22.71 233.76 23.23 233.76 24.27V57.66C233.76 58.65 233.24 59.22 232.19 59.22H226.35C225.36 59.22 224.79 58.65 224.79 57.66V37.11C224.79 36.74 224.32 36.69 224.22 37.06L219.16 57.87C218.95 58.76 218.38 59.23 217.44 59.23H214C213.06 59.23 212.49 58.76 212.28 57.87L207.22 37.06C207.11 36.7 206.64 36.75 206.64 37.11V57.66C206.64 58.65 206.12 59.22 205.08 59.22H199.24C198.2 59.22 197.68 58.65 197.68 57.66V24.28C197.68 23.24 198.2 22.72 199.24 22.72H210.04L210.03 22.71Z" fill="white"/>
<path d="M250.46 22.71C260.26 22.71 264.02 26.67 264.02 35.23C264.02 37 263.5 40.45 261.36 42.79C263.5 43.78 265.07 46.39 265.07 49.62C265.07 56.09 262.2 59.22 252.4 59.22H239.52C238.53 59.22 237.95 58.65 237.95 57.66V24.33C237.95 23.29 238.47 22.76 239.52 22.71H250.47H250.46ZM251.71 51.81C254.21 51.81 255.46 51.55 255.46 49.1C255.46 46.65 254.31 46.28 251.81 46.28H248.42C247.43 46.28 246.85 46.8 246.85 47.85V50.25C246.85 51.29 247.42 51.82 248.42 51.82H251.71V51.81ZM251.29 38.77C253.79 38.77 255.05 38.46 255.05 35.22C255.05 31.98 253.8 31.67 251.29 31.67H248.47C247.48 31.67 246.9 32.19 246.9 33.24V37.2C246.9 38.24 247.47 38.76 248.47 38.76H251.29V38.77Z" fill="white"/>
<path d="M292.75 57.45C292.75 58.6 292.23 59.22 291.19 59.22H285.35C284.36 59.22 283.79 58.7 283.79 57.65V53.11C283.79 52.07 283.27 51.54 282.23 51.54H277.74C276.75 51.54 276.18 52.06 276.18 53.11V57.65C276.18 58.69 275.66 59.22 274.61 59.22H268.77C267.78 59.22 267.21 58.59 267.21 57.45V35.34C267.21 28.77 268.25 21.78 279.99 21.78C291.73 21.78 292.77 28.77 292.77 35.34V57.45H292.75ZM283.78 35.34C283.78 32.84 283.41 31.59 279.97 31.59C276.53 31.59 276.17 32.84 276.17 35.34V41.03C276.17 42.02 276.74 42.59 277.73 42.59H282.22C283.26 42.54 283.78 42.02 283.78 40.97V35.34Z" fill="white"/>
<path d="M163.71 100.92C163.71 102.07 163.19 102.69 162.15 102.69H156.31C155.32 102.69 154.75 102.17 154.75 101.12V96.58C154.75 95.54 154.23 95.01 153.19 95.01H148.7C147.71 95.01 147.14 95.53 147.14 96.58V101.12C147.14 102.16 146.62 102.69 145.57 102.69H139.73C138.74 102.69 138.17 102.06 138.17 100.92V78.81C138.17 72.24 139.21 65.25 150.95 65.25C162.69 65.25 163.73 72.24 163.73 78.81V100.92H163.71ZM154.74 78.81C154.74 76.31 154.37 75.06 150.93 75.06C147.49 75.06 147.13 76.31 147.13 78.81V84.5C147.13 85.49 147.7 86.06 148.69 86.06H153.18C154.22 86.01 154.74 85.49 154.74 84.44V78.81Z" fill="white"/>
<path d="M191.62 66.1899C192.66 66.1899 193.18 66.7099 193.18 67.7599V73.5999C193.18 74.5899 192.66 75.1699 191.62 75.1699H178.48C177.49 75.1699 176.91 75.6899 176.91 76.7299V78.3999C176.91 79.3899 177.48 79.9699 178.48 79.9699H187.08C188.12 79.9699 188.64 80.4899 188.64 81.5299V87.3699C188.64 88.3599 188.12 88.9299 187.08 88.9299H178.48C177.49 88.9299 176.91 89.4499 176.91 90.4999V101.14C176.91 102.13 176.39 102.71 175.35 102.71H169.2C168.21 102.71 167.64 102.14 167.64 101.14V67.7599C167.64 66.7199 168.21 66.1899 169.2 66.1899H191.63H191.62Z" fill="white"/>
<path d="M222.76 99.88C223.49 101.23 222.66 102.7 221.04 102.7H215.09C214.57 102.7 214.1 102.44 213.89 101.97L208.47 91.49C208.36 91.33 208.21 91.23 208.05 91.23H205.97C205.03 91.23 204.35 91.91 204.35 92.85V101.09C204.35 102.03 203.67 102.71 202.73 102.71H196.89C195.95 102.71 195.27 102.03 195.27 101.09V67.82C195.27 66.88 195.95 66.2 196.89 66.2H208.31C217.59 66.2 221.35 70.16 221.35 78.72C221.35 83.57 220.15 86.96 217.39 88.94C217.18 89.1 217.13 89.36 217.23 89.62L222.76 99.9V99.88ZM205.97 75.16C205.03 75.16 204.35 75.84 204.35 76.78V80.64C204.35 81.58 205.03 82.25 205.97 82.25H208.63C211.13 82.25 212.39 81.94 212.39 78.7C212.39 75.46 211.14 75.15 208.63 75.15H205.97V75.16Z" fill="white"/>
<path d="M232.46 66.1899C233.5 66.1899 234.02 66.7099 234.02 67.7599V101.14C234.02 102.13 233.5 102.71 232.46 102.71H226.72C225.73 102.71 225.15 102.14 225.15 101.14V67.7599C225.15 66.7199 225.72 66.1899 226.72 66.1899H232.46Z" fill="white"/>
<path d="M237.68 77.92C237.68 74.48 238.41 65.25 250.77 65.25C261.88 65.25 263.6 72.71 263.81 76.72C263.86 77.45 263.39 78.02 262.66 78.18L256.87 79.48C255.77 79.69 254.94 78.96 254.78 77.86C254.52 75.56 253.58 74.21 250.76 74.21C246.9 74.21 246.64 76.66 246.64 80.68V88.19C246.64 92.2 246.9 94.66 250.76 94.66C253.63 94.66 254.41 93.3 254.72 90.91C254.88 89.81 255.71 89.14 256.75 89.4L262.64 90.7C263.37 90.86 263.84 91.43 263.79 92.21C263.58 96.17 261.86 103.63 250.75 103.63C238.39 103.63 237.66 94.4 237.66 90.96V77.92H237.68Z" fill="white"/>
<path d="M291.66 100.92C291.66 102.07 291.14 102.69 290.1 102.69H284.26C283.27 102.69 282.7 102.17 282.7 101.12V96.58C282.7 95.54 282.18 95.01 281.13 95.01H276.64C275.65 95.01 275.08 95.53 275.08 96.58V101.12C275.08 102.16 274.56 102.69 273.51 102.69H267.67C266.68 102.69 266.1 102.06 266.1 100.92V78.81C266.1 72.24 267.14 65.25 278.88 65.25C290.62 65.25 291.66 72.24 291.66 78.81V100.92ZM282.69 78.81C282.69 76.31 282.32 75.06 278.88 75.06C275.44 75.06 275.07 76.31 275.07 78.81V84.5C275.07 85.49 275.64 86.06 276.63 86.06H281.12C282.16 86.01 282.69 85.49 282.69 84.44V78.81Z" fill="white"/>
</g>
<defs>
<clipPath id="clip0_7_1264">
<rect width="292.75" height="125.01" fill="white"/>
</clipPath>
</defs>
</svg>
