<svg width="32" height="31" viewBox="0 0 32 31" fill="none" xmlns="http://www.w3.org/2000/svg">
<g clip-path="url(#clip0_7_1032)">
<path d="M32.0001 15.4732C32.0209 23.7331 25.2691 31.0067 15.9897 31C6.80034 31 0.0277843 23.8405 8.46583e-05 15.5537C-0.027615 7.23335 6.74495 -0.0134013 16.0382 1.86092e-05C25.2691 0.0134385 31.9862 7.24006 32.0001 15.4732ZM8.60775 17.56C9.26561 18.9154 10.2213 19.8145 11.7309 20.0896C11.8763 20.1165 12.091 20.0494 12.1256 20.2507C12.1533 20.4184 11.9663 20.4989 11.8486 20.5929C11.0938 21.1901 10.2074 21.4786 9.27946 21.6933C8.50387 21.8678 7.70751 21.8678 6.80727 22.0221C7.09812 22.163 7.27124 22.2502 7.44436 22.324C9.58416 23.2567 11.814 23.666 14.1477 23.3641C17.0146 22.995 19.4729 21.8342 21.4188 19.7407C23.3578 17.6472 24.265 15.1779 24.1957 12.3732C24.1819 11.9236 24.2719 11.615 24.7151 11.3801C25.2691 11.0849 25.6707 10.6085 26.01 9.99114C25.3453 10.2059 24.7428 10.387 24.0988 10.3669C24.6528 9.78985 25.276 9.30002 25.5461 8.43443C24.9852 8.66928 24.5212 8.85045 24.0641 9.05846C23.5932 9.27989 23.2332 9.22621 22.783 8.89742C21.3704 7.85738 19.8122 7.71647 18.2472 8.5485C16.7237 9.36041 16.0312 10.6688 16.1905 12.3598C16.2251 12.7154 16.0728 12.816 15.7473 12.8093C14.7709 12.7892 13.8361 12.6013 12.922 12.2792C11.073 11.6217 9.52876 10.5346 8.1784 9.16582C7.80446 8.78335 7.71443 8.80348 7.52746 9.30002C7.25739 10.018 7.20199 10.7561 7.37511 11.5009C7.58978 12.4067 8.1784 13.0643 8.87782 13.6548C8.95399 13.7219 9.07864 13.7756 9.05094 13.8896C9.00939 14.0305 8.86397 14.0171 8.73932 14.0238C8.37922 14.0372 8.0399 13.9433 7.72136 13.8024C7.31279 13.6212 7.26431 13.7756 7.34049 14.1245C7.63133 15.5269 8.4277 16.5266 9.79191 17.097C9.94425 17.1574 10.1451 17.1574 10.2351 17.3721C9.75728 17.7009 9.21021 17.5801 8.6216 17.56" fill="#231F20"/>
</g>
<defs>
<clipPath id="clip0_7_1032">
<rect width="32" height="31" fill="white"/>
</clipPath>
</defs>
</svg>
