<svg width="34" height="34" viewBox="0 0 34 34" fill="none" xmlns="http://www.w3.org/2000/svg">
<g clip-path="url(#clip0_7_1306)">
<path d="M16.6136 0C7.45484 0 0 7.62418 0 16.9974C0 26.3706 7.45484 34 16.6136 34C25.7724 34 33.2273 26.3706 33.2273 16.9974C33.2273 7.62418 25.7724 0 16.6136 0ZM16.6136 31.8202C8.61617 31.8202 2.12995 25.1821 2.12995 16.9974C2.12995 8.8127 8.61617 2.17982 16.6136 2.17982C24.6111 2.17982 31.0973 8.81789 31.0973 17.0026C31.0973 25.1873 24.6111 31.8254 16.6136 31.8254" fill="white"/>
<path d="M12.9927 9.38879V21.9279C14.012 20.9418 15.0111 19.9609 16.0304 18.98C16.8317 20.8692 17.6228 22.7324 18.4089 24.6112C18.9616 24.3465 19.4992 24.1026 20.0469 23.8483C19.2254 21.9902 18.4089 20.1478 17.5924 18.2897C19.0326 18.16 20.4526 18.0354 21.9132 17.9057C18.9211 15.0563 15.9645 12.2329 12.9978 9.38879" fill="white"/>
</g>
<defs>
<clipPath id="clip0_7_1306">
<rect width="33.2273" height="34" fill="white"/>
</clipPath>
</defs>
</svg>
